<?xml version="1.0" encoding="utf-8"?>
<!-- Generator: Adobe Illustrator 26.3.1, SVG Export Plug-In . SVG Version: 6.00 Build 0)  -->
<svg version="1.1" id="Layer_1" xmlns="http://www.w3.org/2000/svg" xmlns:xlink="http://www.w3.org/1999/xlink" x="0px" y="0px"
	 viewBox="0 0 27 27" style="enable-background:new 0 0 27 27;" xml:space="preserve">
<style type="text/css">
	.st0{fill:#EAAA00;}
</style>
<path class="st0" d="M16.5,23.5l8.9-8.9c0.3-0.3,0.4-0.6,0.4-1v0c0-0.4-0.1-0.7-0.4-1l-8.9-8.9c-0.5-0.5-1.4-0.5-1.9,0l-0.8,0.8
	c-0.3,0.3-0.4,0.6-0.4,1c0,0.4,0.1,0.7,0.4,1l5.2,5.2H2.5c-0.7,0-1.3,0.5-1.3,1.3v1.1c0,0.7,0.6,1.4,1.3,1.4h16.5l-5.2,5.2
	c-0.3,0.3-0.4,0.6-0.4,0.9c0,0.4,0.1,0.7,0.4,0.9l0.8,0.8"/>
</svg>
