<svg width="46" height="46" viewBox="0 0 46 46" fill="none" xmlns="http://www.w3.org/2000/svg">
<g clip-path="url(#clip0_6_131)">
<path d="M0.258738 34.8853C0.908488 35.351 2.30574 34.7703 3.80074 33.4075C6.47449 30.958 9.18849 28.5143 11.7415 25.921C15.686 21.9305 19.5212 17.8365 23.3967 13.7885C29.7735 21.3498 37.2485 28.0715 44.137 35.2475C44.459 35.5925 45.2237 35.8743 45.5572 35.8743C46.2127 35.8743 46.0632 35.167 45.6435 34.3218C44.2462 31.533 42.0037 28.6925 39.514 26.0303C34.6495 20.8725 29.8712 15.6458 24.794 10.649L24.7767 10.6318C24.0695 9.93601 22.9367 9.94751 22.2467 10.649C21.045 11.868 19.849 13.1043 18.676 14.3635C17.8767 15.1168 17.0775 15.8585 16.284 16.6118C11.2642 21.413 6.32499 26.2833 1.71349 31.4468C0.390988 32.9188 -0.454262 34.385 0.258738 34.8853Z" fill="#EAAA00"/>
</g>
<defs>
<clipPath id="clip0_6_131">
<rect width="46" height="46" fill="white"/>
</clipPath>
</defs>
</svg>
