<svg width="41" height="41" viewBox="0 0 41 41" fill="none" xmlns="http://www.w3.org/2000/svg">
<path d="M20.1208 17.0765C19.6134 16.564 19.106 16.0515 18.5935 15.5441C15.3084 12.3512 11.9362 9.266 8.23079 6.58562C7.17504 5.82712 6.02191 5.50425 5.40691 6.3345C4.84316 7.10325 5.06354 8.23075 5.98091 9.19425C7.63629 10.9316 9.28141 12.6895 11.0803 14.2629C13.9862 16.7946 17.0048 19.1777 19.9773 21.6326C24.2464 27.2035 30.0223 31.3394 35.0397 36.1876C35.26 36.4029 35.8955 36.4285 36.1877 36.326C36.7924 36.1159 36.8027 35.4957 36.5977 34.8397C35.9314 32.6667 34.5067 30.709 32.8 29.0024C28.7052 24.9177 24.7179 20.6845 20.1208 17.0765Z" fill="#EAAA00"/>
<path d="M15.9387 20.6179C15.4109 21.1099 14.8779 21.5967 14.3602 22.099C11.07 25.2765 7.8771 28.5514 5.08397 32.1747C4.29472 33.2049 3.93597 34.3477 4.7406 34.9884C5.48885 35.5778 6.6266 35.3932 7.61573 34.5015C9.40435 32.9025 11.2135 31.3137 12.8432 29.5661C15.4621 26.7422 17.9477 23.8005 20.4897 20.91C26.1887 16.8202 30.5091 11.1827 35.5162 6.314C35.7366 6.09875 35.7879 5.46837 35.6905 5.17112C35.4957 4.56125 34.8807 4.5305 34.2145 4.715C32.021 5.31462 30.0171 6.67275 28.2592 8.32812C24.0465 12.2897 19.6902 16.1437 15.9387 20.6179Z" fill="#EAAA00"/>
</svg>
