<?xml version="1.0" encoding="utf-8"?>
<!-- Generator: Adobe Illustrator 26.3.1, SVG Export Plug-In . SVG Version: 6.00 Build 0)  -->
<svg version="1.1" id="Layer_1" xmlns="http://www.w3.org/2000/svg" xmlns:xlink="http://www.w3.org/1999/xlink" x="0px" y="0px"
	 viewBox="0 0 800 800" style="enable-background:new 0 0 800 800;" xml:space="preserve">
<style type="text/css">
	.st0{fill:none;stroke:#EBB42A;stroke-width:53;stroke-linecap:round;stroke-miterlimit:133.3333;}
</style>
<path class="st0" d="M666.7,333.3v-100c0-36.8-29.8-66.7-66.7-66.7H200c-36.8,0-66.7,29.8-66.7,66.7v100 M666.7,333.3H133.3
	 M666.7,333.3v58.3 M133.3,333.3v300c0,36.8,29.8,66.7,66.7,66.7h200 M266.7,100v133.3 M533.3,100v133.3"/>
<path class="st0" d="M500.8,500.8c-21.1,21.1-34.2,50.3-34.2,82.5c0,64.4,52.2,116.7,116.7,116.7c32.2,0,61.4-13.1,82.5-34.2
	 M500.8,500.8c21.1-21.1,50.3-34.2,82.5-34.2c64.4,0,116.7,52.2,116.7,116.7c0,32.2-13.1,61.4-34.2,82.5 M500.8,500.8l82.5,82.5
	l82.5,82.5"/>
</svg>
