<svg width="27" height="27" viewBox="0 0 27 27" fill="none" xmlns="http://www.w3.org/2000/svg">
<g clip-path="url(#clip0_6_83)">
<path d="M4.76552 5.11312C7.03015 5.27175 9.28802 5.51475 11.5628 5.3325C11.8429 5.35612 12.1264 5.37637 12.4065 5.39325C14.1885 5.48775 15.9773 5.51475 17.7525 5.28862C17.8673 5.27175 17.9854 5.24475 18.09 5.211C18.09 5.3595 18.0968 5.5215 18.1508 5.68687C18.333 6.36187 18.7076 6.99637 19.2341 7.4925C19.764 7.98862 20.4255 8.343 21.168 8.4645L21.411 8.49825L21.5325 8.51512L21.6203 8.52187L21.7924 8.52862H21.924L22.0354 8.52187C22.329 8.51175 22.6193 8.46787 22.896 8.39025C23.4596 8.235 23.9828 7.95825 24.4249 7.59375C25.3125 6.858 25.8424 5.75437 25.8728 4.617C25.839 4.65075 25.8019 4.671 25.7681 4.70475C25.8019 4.66762 25.839 4.63725 25.8728 4.617C25.9841 4.14787 25.9875 3.60112 25.8795 3.08137C25.7715 2.56163 25.5319 2.05875 25.2045 1.62337C24.8771 1.188 24.4586 0.813375 23.9794 0.536625C23.8579 0.469125 23.7296 0.408375 23.6081 0.347625C23.4799 0.293625 23.3483 0.24975 23.2166 0.199125C23.085 0.162 22.9466 0.1215 22.815 0.08775C22.6699 0.054 22.5045 0.037125 22.356 0.016875L22.2953 0.010125H22.2581L22.1805 0.003375L22.0253 0H21.9881H21.9645H21.897H21.8869L21.7823 0.00675L21.573 0.016875C21.2963 0.0405 21.0195 0.08775 20.7495 0.165375C20.2129 0.313875 19.7066 0.57375 19.2713 0.91125C18.8291 1.24875 18.4613 1.66725 18.171 2.14312C18.0934 2.25787 18.0326 2.38612 17.9719 2.50762C17.9044 2.62912 17.8571 2.76075 17.8065 2.889C17.7525 3.01725 17.712 3.14887 17.6749 3.28725L17.6209 3.49312L17.5973 3.62475C16.7096 3.53025 15.8153 3.43575 14.9243 3.44925C13.4224 3.47287 11.9205 3.58087 10.4186 3.65512C7.7254 3.02062 4.96802 3.38512 2.24777 3.2535C2.12627 3.24675 1.93727 3.4425 1.87652 3.57412C1.76177 3.84412 1.91027 4.07025 2.14315 4.24237C2.9059 4.79925 3.82727 5.04562 4.76552 5.11312ZM18.5456 3.96562C19.224 3.0645 19.953 2.47387 20.7664 2.12625C21.0094 2.01487 21.2693 1.96762 21.5224 1.944C21.5899 1.944 21.6506 1.92712 21.7148 1.93725L21.8633 1.944C22.0286 1.96087 22.2345 1.98112 22.2986 2.01487C22.3493 2.025 22.3965 2.0385 22.4573 2.0655C22.518 2.08912 22.5788 2.10262 22.6328 2.133L22.7981 2.21062L22.9568 2.30512C23.166 2.43675 23.3483 2.592 23.5103 2.77425C23.8208 3.13875 24.03 3.58087 24.0908 4.04325C24.1009 4.09725 24.1076 4.158 24.1076 4.21875L24.1144 4.3065L24.1211 4.35037V4.35712L24.111 4.617C24.1043 4.67775 24.0941 4.7115 24.0941 4.76213C24.0671 4.968 23.9996 5.22112 23.9119 5.4405C23.7803 5.63962 23.6149 5.81175 23.4326 5.96362C22.8623 6.44287 22.0894 6.60825 21.3941 6.44287C21.0465 6.36525 20.7158 6.21 20.4289 5.9805C20.1353 5.75437 19.8923 5.46075 19.71 5.11312C19.656 5.01862 19.6121 4.92075 19.5446 4.833C19.494 4.74525 19.4164 4.66087 19.3455 4.59C19.2071 4.44487 19.008 4.34025 18.7616 4.35712C18.711 4.36387 18.6671 4.374 18.6233 4.38412C18.5996 4.25587 18.5558 4.14112 18.4849 4.04325C18.5119 4.01287 18.5288 3.99262 18.5456 3.96562Z" fill="white"/>
<path d="M1.23523 13.2131C1.20148 13.2502 1.16436 13.2806 1.13061 13.3009C1.01923 13.77 1.01586 14.3167 1.12386 14.8365C1.23523 15.3562 1.46473 15.8591 1.79211 16.2945C2.11948 16.7299 2.53798 17.1045 3.01723 17.3812C3.13873 17.4487 3.26698 17.5095 3.38848 17.5702C3.51673 17.6242 3.64836 17.6681 3.77998 17.7187C3.91161 17.7559 4.04998 17.7964 4.18161 17.8301C4.32673 17.8639 4.49211 17.8807 4.64061 17.901L4.70136 17.9077H4.73848L4.81611 17.9145L4.97136 17.9212H5.00848H5.03211H5.09961H5.10973L5.21436 17.9145L5.42361 17.9044C5.70036 17.8807 5.97711 17.8335 6.24711 17.7559C6.78373 17.6074 7.28998 17.3475 7.72536 17.01C8.16748 16.6725 8.53536 16.254 8.82561 15.7781C8.90323 15.6634 8.96398 15.5351 9.02473 15.4136C9.09223 15.2921 9.13948 15.1605 9.19011 15.0322C9.24411 14.904 9.28461 14.7724 9.32173 14.634L9.37573 14.4281L9.39936 14.2965C10.287 14.391 11.1814 14.4855 12.0724 14.472C13.5742 14.4484 15.0761 14.3404 16.578 14.2661C19.2712 14.9006 22.0286 14.5361 24.7489 14.6677C24.8704 14.6745 25.0594 14.4787 25.1201 14.3471C25.2349 14.0771 25.0864 13.851 24.8535 13.6789C24.0907 13.1085 23.1694 12.8621 22.2311 12.7946C19.9665 12.636 17.7086 12.393 15.4339 12.5752C15.1537 12.5516 14.8702 12.5314 14.5901 12.5145C12.8081 12.42 11.0194 12.393 9.24411 12.6191C9.12936 12.636 9.01123 12.663 8.90661 12.6967C8.90661 12.5482 8.89986 12.3862 8.84586 12.2209C8.66361 11.5459 8.28898 10.9114 7.76248 10.4152C7.23261 9.91912 6.57111 9.56474 5.82861 9.44324L5.58561 9.40949L5.46411 9.39262L5.37636 9.38587L5.20423 9.37912H5.07261L4.96123 9.38587C4.66761 9.396 4.37736 9.43987 4.10061 9.5175C3.53698 9.67275 3.01386 9.9495 2.57173 10.314C1.68411 11.0497 1.15423 12.1534 1.12386 13.2907C1.17111 13.2671 1.20486 13.2401 1.23523 13.2131ZM2.88223 13.5506L2.89236 13.2907C2.89911 13.23 2.90923 13.1962 2.90923 13.1456C2.93623 12.9397 3.00373 12.6866 3.09148 12.4672C3.22311 12.2681 3.38848 12.096 3.57073 11.9441C4.14111 11.4649 4.91398 11.2995 5.60923 11.4649C5.95686 11.5425 6.28761 11.6977 6.57448 11.9272C6.86811 12.1534 7.11111 12.447 7.29336 12.7946C7.34736 12.8891 7.39123 12.987 7.45873 13.0747C7.50936 13.1625 7.58698 13.2469 7.65786 13.3177C7.79623 13.4629 7.99536 13.5675 8.24173 13.5506C8.29236 13.5439 8.33623 13.5337 8.38011 13.5236C8.40373 13.6519 8.44761 13.7666 8.51848 13.8645C8.50161 13.8881 8.48136 13.9151 8.46448 13.9354C7.78611 14.8365 7.05711 15.4271 6.24373 15.7747C6.00073 15.8861 5.74086 15.9334 5.48773 15.957C5.42023 15.957 5.35948 15.9739 5.29536 15.9637L5.14686 15.957C4.98148 15.9401 4.77561 15.9199 4.71148 15.8861C4.66086 15.876 4.61361 15.8625 4.55286 15.8355C4.49211 15.8119 4.43136 15.7984 4.37736 15.768L4.21198 15.6904L4.05336 15.5959C3.84411 15.4642 3.66186 15.309 3.49986 15.1267C3.18936 14.7555 2.98011 14.3201 2.91936 13.8577C2.90923 13.8037 2.90248 13.743 2.90248 13.6822L2.89573 13.5945L2.88898 13.5506H2.88223Z" fill="white"/>
<path d="M2.14316 22.7036C2.90591 23.274 3.82729 23.5204 4.76554 23.5879C7.03016 23.7465 9.28804 23.9895 11.5628 23.8073C11.8429 23.8309 12.1264 23.8511 12.4065 23.868C14.1885 23.9625 15.9773 23.9895 17.7525 23.7634C17.8673 23.7465 17.9854 23.7195 18.09 23.6857C18.09 23.8342 18.0968 23.9963 18.1508 24.1616C18.333 24.8366 18.7077 25.4711 19.2342 25.9673C19.764 26.4634 20.4255 26.8178 21.168 26.9393L21.411 26.973L21.5325 26.9899L21.6203 26.9966L21.7924 27.0034H21.924L22.0354 26.9966C22.329 26.9865 22.6193 26.9426 22.896 26.865C23.4597 26.7098 23.9828 26.433 24.4249 26.0685C25.3125 25.3328 25.8424 24.2291 25.8728 23.0918C25.839 23.1255 25.8019 23.1457 25.7682 23.1795C25.8019 23.1424 25.839 23.112 25.8728 23.0918C25.9842 22.6226 25.9875 22.0759 25.8795 21.5561C25.7715 21.0364 25.5387 20.5335 25.2113 20.0981C24.8839 19.6628 24.4654 19.2881 23.9862 19.0114C23.8647 18.9439 23.7364 18.8831 23.6149 18.8224C23.4867 18.7684 23.355 18.7245 23.2234 18.6739C23.0918 18.6367 22.9534 18.5962 22.8218 18.5625C22.6767 18.5287 22.5113 18.5119 22.3628 18.4916L22.302 18.4849H22.2649L22.1873 18.4781L22.032 18.4714H21.9949H21.9713H21.9038H21.8937L21.789 18.4781L21.5798 18.4882C21.303 18.5119 21.0263 18.5591 20.7563 18.6368C20.2197 18.7853 19.7134 19.0451 19.278 19.3826C18.8359 19.7201 18.468 20.1386 18.1778 20.6145C18.1002 20.7292 18.0394 20.8575 17.9787 20.979C17.9112 21.1005 17.8639 21.2321 17.8133 21.3604C17.7593 21.4886 17.7188 21.6203 17.6817 21.7586L17.6277 21.9645L17.604 22.0961C16.7164 22.0016 15.822 21.9071 14.931 21.9206C13.4292 21.9443 11.9273 22.0522 10.4254 22.1265C7.73216 21.492 4.97479 21.8565 2.25454 21.7249C2.13304 21.7181 1.94404 21.9139 1.88329 22.0455C1.75504 22.302 1.91029 22.5281 2.14316 22.7036ZM18.5457 22.4404C19.224 21.5393 19.953 20.9486 20.7664 20.601C21.0094 20.4896 21.2693 20.4424 21.5224 20.4188C21.5899 20.4188 21.6507 20.4019 21.7148 20.412L21.8633 20.4188C22.0287 20.4356 22.2345 20.4559 22.2987 20.4896C22.3493 20.4997 22.3965 20.5132 22.4573 20.5402C22.518 20.5639 22.5788 20.5774 22.6328 20.6077L22.7982 20.6854L22.9568 20.7799C23.166 20.9115 23.3483 21.0667 23.5103 21.249C23.8208 21.6135 24.03 22.0556 24.0908 22.518C24.1009 22.572 24.1077 22.6328 24.1077 22.6935L24.1144 22.7812L24.1212 22.8251V22.8319L24.111 23.0918C24.1043 23.1525 24.0942 23.1863 24.0942 23.2369C24.0672 23.4427 23.9997 23.6959 23.9119 23.9152C23.7803 24.1144 23.6149 24.2865 23.4327 24.4384C22.8623 24.9176 22.0894 25.083 21.3942 24.9176C21.0465 24.84 20.7158 24.6847 20.4289 24.4552C20.1353 24.2291 19.8923 23.9355 19.71 23.5879C19.656 23.4934 19.6122 23.3955 19.5447 23.3077C19.494 23.22 19.4164 23.1356 19.3455 23.0648C19.2072 22.9196 19.008 22.815 18.7617 22.8319C18.711 22.8386 18.6672 22.8487 18.6233 22.8589C18.5997 22.7306 18.5558 22.6159 18.4849 22.518C18.5119 22.4876 18.5288 22.4674 18.5457 22.4404Z" fill="white"/>
</g>
<defs>
<clipPath id="clip0_6_83">
<rect width="27" height="27" fill="white"/>
</clipPath>
</defs>
</svg>
