<?xml version="1.0" encoding="utf-8"?>
<!-- Generator: Adobe Illustrator 26.3.1, SVG Export Plug-In . SVG Version: 6.00 Build 0)  -->
<svg version="1.1" id="Layer_1" xmlns="http://www.w3.org/2000/svg" xmlns:xlink="http://www.w3.org/1999/xlink" x="0px" y="0px"
	 viewBox="0 0 46 46" style="enable-background:new 0 0 46 46;" xml:space="preserve">
<style type="text/css">
	.st0{fill:#EAAA00;}
</style>
<g>
	<defs>
		<rect id="SVGID_1_" width="46" height="46"/>
	</defs>
	<clipPath id="SVGID_00000011750162137931602930000001718740516261114244_">
		<use xlink:href="#SVGID_1_"  style="overflow:visible;"/>
	</clipPath>
</g>
<g>
	<path class="st0" d="M25,38.5V6.7c0-1.1-0.9-2-2-2c-1.1,0-2,0.9-2,2v31.9c0,1.1,0.9,2,2,2C24.1,40.5,25,39.6,25,38.5L25,38.5z"/>
	<path class="st0" d="M10.2,32.2l27.7-15.8c1-0.5,1.3-1.7,0.7-2.7c-0.5-1-1.7-1.3-2.7-0.7L8.2,28.8c-1,0.5-1.3,1.7-0.7,2.7
		C8,32.5,9.2,32.8,10.2,32.2L10.2,32.2z"/>
	<path class="st0" d="M8.2,16.4l27.7,15.9c1,0.5,2.2,0.2,2.7-0.7s0.2-2.2-0.7-2.7L10.1,13c-1-0.5-2.2-0.2-2.7,0.7
		C6.9,14.7,7.3,15.9,8.2,16.4L8.2,16.4z"/>
</g>
</svg>
