<svg width="149" height="141" viewBox="0 0 149 141" fill="none" xmlns="http://www.w3.org/2000/svg">
<path d="M0.055875 112.257C0.093125 113.114 0.055875 113.859 0.204875 115.051C1.22925 124.96 7.91562 133.602 17.1164 137.438C19.3886 138.444 21.8285 138.984 24.287 139.375C24.9016 139.431 25.5349 139.468 26.1309 139.524C26.7641 139.58 27.3974 139.617 27.863 139.617L30.9361 139.71L43.21 139.99C59.5441 140.325 75.9527 140.381 92.38 139.897C96.4589 140.027 100.482 140.102 104.561 140.232L114.227 140.418L119.051 140.474H119.666H119.815H120.262H120.56L121.77 140.418C122.441 140.418 123.782 140.232 124.806 140.083C128.997 139.375 132.74 137.904 136.167 135.613C139.538 133.341 142.425 130.361 144.586 126.897C146.746 123.47 148.162 119.521 148.683 115.498C148.87 114.492 148.888 113.487 148.925 112.499C148.925 112.015 148.981 111.438 148.963 111.047L148.925 109.836L148.832 105.012C148.683 98.5679 148.46 92.1609 148.125 85.7539C147.752 78.4715 146.355 72.3811 143.636 72.9399C141.122 73.4241 139.259 78.6205 138.98 86.0891C138.738 92.7941 138.495 99.5736 138.253 106.316L138.104 111.363C138.048 112.034 138.011 112.704 137.918 113.375C137.769 114.008 137.732 114.678 137.527 115.312C136.894 117.901 135.702 120.285 134.1 122.389C131.511 125.76 127.749 128.219 123.558 129.187L122.199 129.43C122.012 129.485 121.658 129.523 121.323 129.523L120.317 129.579L119.796 129.616H119.666H119.61H119.517L118.511 129.653L116.481 129.69L108.342 129.839L75.8224 130.473C66.1001 129.597 56.322 129.076 46.5066 128.778C41.5896 128.629 36.6912 128.498 31.7742 128.442L28.0679 128.405H27.1552L26.4475 128.349C26.0005 128.293 25.5349 128.349 25.0879 128.219C23.2626 128.033 21.5305 127.437 19.8915 126.673C16.5762 125.164 13.857 122.464 12.0876 119.26L11.473 118.05C11.2867 117.621 11.175 117.193 10.9887 116.783C10.8025 116.373 10.7094 115.908 10.5976 115.479L10.4114 114.809C10.3555 114.604 10.3555 114.418 10.3182 114.232L10.2251 113.691C10.1879 113.505 10.132 113.356 10.132 112.984L10.0389 111.14L10.0016 107.731C9.96437 97.8601 9.96437 87.9889 10.1506 78.1735C10.1879 76.4041 9.12625 73.6849 8.38125 72.7909C6.89125 71.096 5.64337 73.3124 4.71212 76.6463C3.129 82.1406 2.0115 88.2124 1.24787 94.6194C0.85675 97.8043 0.540125 101.082 0.33525 104.435C0.204875 106.111 0.130375 107.769 0.03725 109.445L0 110.73V111.028V111.177V111.55L0.055875 112.257Z" fill="white"/>
<path d="M52.5225 33.0638C55.8564 30.4563 59.2648 27.8674 62.2075 24.8315C64.666 22.3171 67.0128 19.691 69.3223 17.0276C68.8939 21.2741 68.5028 25.5579 68.5586 29.823C68.689 38.1111 69.285 46.3993 69.6761 54.7246C66.1746 69.606 68.1861 84.8226 67.4598 99.8716C67.4225 100.542 68.4841 101.604 69.2291 101.939C70.7191 102.61 71.967 101.734 72.8983 100.486C76.0273 96.2956 77.3869 91.1924 77.7594 85.996C78.6348 73.5173 79.9758 61.0199 78.97 48.448C79.1004 46.9021 79.2121 45.3563 79.3053 43.7918C79.6964 36.0438 79.8826 28.333 79.3425 20.6223C84.3526 25.9304 89.9215 30.7729 94.7454 36.2114C95.1179 36.6025 96.4775 36.4908 97.1666 36.1555C98.6008 35.485 98.9919 34.0881 98.936 32.6913C98.7311 28.035 96.7569 24.1238 94.019 20.883C88.7109 14.5691 83.6076 8.03176 77.6476 2.29526L77.4986 2.14626C75.245 -0.0142365 71.669 0.0416384 69.5085 2.29526C68.1489 3.72939 66.8079 5.21939 65.5228 6.76526C64.5543 7.58476 63.5485 8.36701 62.5986 9.22376C56.5455 14.5691 50.7159 20.1566 45.9479 26.7126C44.5883 28.5565 44.253 30.9033 46.3204 32.7285C48.2015 34.3303 50.6414 34.5165 52.5225 33.0638Z" fill="white"/>
</svg>
