<svg width="207" height="207" viewBox="0 0 207 207" fill="none" xmlns="http://www.w3.org/2000/svg">
<g clip-path="url(#clip0_6_65)">
<path d="M64.6616 92.7619C66.8869 96.5914 69.759 100.266 73.2521 103.345C76.7194 106.424 80.8076 108.908 85.1546 110.434C90.0968 112.246 94.806 112.323 97.9628 111.702C101.12 110.848 102.853 109.503 102.517 107.562C101.922 103.94 96.2033 101.74 89.7863 98.5837C83.9126 95.7116 79.7209 90.666 76.9264 84.5077C74.106 78.3495 72.657 71.2598 71.8549 64.0665C71.5185 61.1685 71.3374 58.1929 71.3115 55.2431C71.2598 53.7682 71.2598 52.2934 71.3115 50.8703L71.3891 48.7226L71.5703 46.2645L71.9066 42.0469C71.9584 40.6237 72.4241 39.3559 72.6311 37.9586L73.0193 35.9404L73.6403 34.0515C74.106 32.7836 74.3648 31.4381 75.0375 30.3514C77.1334 25.5386 80.523 21.528 84.8959 18.7076C89.2429 15.8096 94.6766 14.1536 100.162 13.6102C105.104 13.8949 110.124 15.0075 114.419 16.8964C118.766 18.7852 122.44 21.3986 125.183 24.7365C127.978 28.0744 129.815 32.1626 131.083 36.639C131.419 38.916 132.092 40.572 132.273 43.7546L132.687 48.0499C132.765 49.1107 132.868 50.508 132.894 51.75C133.179 62.2035 132.014 73.0969 128.133 81.8944C127.176 84.0937 126.037 86.112 124.718 87.975C123.398 89.7862 121.923 91.3387 120.293 92.736C117.007 95.2976 112.996 97.1089 108.649 97.6781C108.313 97.7299 107.925 97.8592 107.511 98.0662C107.097 98.2732 106.76 98.5837 106.113 98.8684C104.975 99.4117 103.914 100.084 103.448 100.628C101.559 102.724 104.302 104.509 108.183 105.389C111.392 106.139 115.014 106.139 118.715 105.466C122.466 104.794 126.27 103.06 129.686 100.628C136.594 95.6599 141.355 87.5869 143.943 79.4104C147.074 69.4485 148.108 59.3314 147.953 49.0849C147.953 47.8687 147.824 46.2904 147.746 45.2036L147.488 41.607C147.488 39.4076 146.763 36.3026 146.271 33.5599C146.064 32.1367 145.547 30.8171 145.133 29.4716C144.667 28.1261 144.279 26.8065 143.736 25.461C142.416 22.8994 141.329 20.2342 139.518 17.8796C136.232 13.041 131.73 8.82337 126.581 5.97712C121.483 3.105 115.92 1.29375 110.357 0.543375C107.562 0.129375 104.742 -0.05175 101.999 -2.98023e-08C99.0495 0.05175 96.3068 0.388125 93.5123 0.9315C88.0009 2.01825 82.4636 4.08825 77.5733 7.3485C72.6053 10.2982 67.9995 14.3089 64.7651 19.251C59.4608 26.9618 57.2096 35.9145 56.5369 44.298L56.3558 45.9022L56.2781 46.7044C56.2264 47.1184 56.3299 46.161 56.3299 46.2386V46.2904V46.3421V46.4198L56.2781 46.6268L56.2264 47.0925C56.1488 48.1792 56.0453 49.1884 56.0194 50.2492C55.9418 52.3192 55.89 54.3375 55.89 56.3558C55.9418 60.444 56.2264 64.4805 56.8215 68.5946C57.96 76.7453 60.1853 85.0511 64.6616 92.7619Z" fill="white"/>
<path d="M192.303 161.46C192.225 159.054 192.018 156.518 191.682 153.956C190.957 148.807 189.457 143.244 186.067 138.017C182.703 132.79 177.14 128.65 171.448 126.762L171.37 126.71C171.189 126.658 170.982 126.58 170.827 126.529C161.331 124.071 152.016 119.956 143.425 114.859C141.355 113.669 137.448 112.918 135.921 113.125C135.197 113.255 134.705 113.514 134.446 113.928C134.188 114.342 134.188 114.885 134.369 115.532C134.757 116.851 136.025 118.559 137.784 120.345C145.159 127.926 155.328 134.809 167.67 139.104L167.282 138.975C172.25 141.329 175.251 145.288 176.674 150.981C177.865 155.25 177.942 160.296 177.865 165.445C177.787 167.98 177.606 170.594 177.347 173.026C177.218 174.242 177.063 175.484 176.804 176.571C176.752 176.752 176.752 176.856 176.726 176.985C176.519 177.114 176.312 177.192 176.131 177.27C175.174 177.735 174.242 178.227 173.259 178.667C171.318 179.598 169.3 180.4 167.308 181.228C163.271 182.833 159.131 184.256 154.914 185.498C146.53 187.982 137.888 189.793 129.142 190.983C126.994 191.371 124.769 191.501 122.57 191.734C120.371 192.018 118.197 192.148 115.998 192.277C113.798 192.406 111.625 192.613 109.374 192.613L102.931 192.795C98.325 192.717 93.6158 192.717 89.3981 192.406L86.1637 192.225L82.8776 191.941C80.6783 191.734 78.453 191.604 76.2536 191.268C73.4591 190.725 70.6905 190.259 67.9478 189.534L63.8078 188.577L59.7195 187.438C54.0788 185.834 48.5156 184.023 43.1078 181.798C40.4168 180.711 37.7516 179.521 35.19 178.305C33.9221 177.684 32.6284 177.037 31.3864 176.364C31.1794 176.235 30.9983 176.157 30.7913 176.028C30.7136 175.407 30.6101 174.76 30.5325 174.087C30.3255 172.198 30.2479 170.128 30.1444 168.058C30.015 164.022 30.1961 159.7 30.6101 156.13C31.0759 152.455 32.0332 149.299 33.4822 146.97C34.9571 144.693 36.8201 143.14 39.5629 142.002L38.9419 142.183C46.6526 139.984 53.8976 136.905 60.7286 133.282C70.6387 128.004 77.2886 121.043 74.3906 118.352C71.7772 115.894 64.4287 117.886 54.8291 121.975C48.5156 124.666 41.9693 126.813 35.397 128.262C35.3194 128.262 35.2159 128.314 35.1383 128.34L34.8795 128.418C31.1276 129.634 27.3758 131.704 24.3484 134.653C21.321 137.551 19.1734 141.2 17.7244 144.771C16.3013 148.393 15.525 152.016 15.111 155.535C14.904 157.294 14.7746 159.002 14.697 160.684L14.6194 163.09L14.5676 164.28V165.678C14.6194 168.498 14.697 171.318 14.9816 174.242C15.111 175.717 15.2663 177.14 15.5768 178.744C15.8614 180.349 16.1719 181.901 16.974 184.023L17.0258 184.101C17.5433 185.368 18.3713 186.455 19.6391 187.231C20.5965 187.827 21.321 188.241 22.1231 188.655C22.9253 189.12 23.6756 189.508 24.4778 189.922C26.0303 190.776 27.6345 191.449 29.2129 192.199C32.3696 193.597 35.5781 194.89 38.8384 196.081C45.2813 198.409 51.8794 200.35 58.5292 201.773C61.8671 202.575 65.1791 203.093 68.5687 203.766C71.9325 204.18 75.2704 204.826 78.6859 205.111C82.0496 205.447 85.4393 205.784 88.8806 205.913L94.0298 206.172L98.9719 206.224C98.7131 206.094 98.4544 205.939 98.2215 205.81C98.4803 205.939 98.739 206.094 98.9719 206.224C106.346 207.078 113.721 207.155 121.199 206.948C128.625 206.534 136.128 205.81 143.555 204.335C150.981 202.912 158.303 200.997 165.522 198.461C169.119 197.193 172.69 195.796 176.235 194.192C177.994 193.441 179.728 192.536 181.513 191.656C182.393 191.19 183.247 190.776 184.126 190.259C185.058 189.741 185.808 189.327 186.947 188.603L187.076 188.525C188.473 187.645 189.612 186.326 190.207 184.644C191.553 180.892 191.76 178.486 192.07 175.924C192.329 173.388 192.458 170.982 192.536 168.576C192.588 167.385 192.588 166.221 192.588 164.953L192.303 161.46Z" fill="white"/>
</g>
<defs>
<clipPath id="clip0_6_65">
<rect width="207" height="207" fill="white"/>
</clipPath>
</defs>
</svg>
